<svg xmlns="http://www.w3.org/2000/svg" xmlns:xlink="http://www.w3.org/1999/xlink" width="215.4375" viewBox="1.07421875 9.1796875 215.4375 38.26171875" overflow="visible" style="overflow: visible;">
<path stroke="none" fill="#262626" d="M16.80 11.13L16.80 11.13L7.96 11.13L7.96 11.13Q5.77 11.13 1.79 10.99L1.79 10.99L1.79 11.81L1.79 11.81Q5.84 12.20 5.87 13.50L5.87 13.50L5.87 13.50Q6.05 17.63 6.05 23.33L6.05 23.33L6.05 23.33Q6.05 28.90 5.84 34.42L5.84 34.42L5.84 34.42Q5.80 35.72 1.76 36.11L1.76 36.11L1.76 36.11Q1.69 36.72 1.76 36.93L1.76 36.93L1.76 36.93Q5.15 36.83 17.53 36.83L17.53 36.83L17.53 36.83Q21.85 36.83 24.03 35.35L24.03 35.35L24.03 35.35Q26.21 33.87 27.97 30.27L27.97 30.27L27.97 30.27Q27.83 29.99 27.35 29.81L27.35 29.81L27.35 29.81Q24.15 35.75 15.56 35.75L15.56 35.75L9.21 35.75L9.21 35.75Q9.04 28.07 9.04 24.52L9.04 24.52L14.77 24.49L14.77 24.49Q15.52 24.49 16.18 24.73L16.18 24.73L16.18 24.73Q16.84 24.98 17.24 25.23L17.24 25.23L17.24 25.23Q17.63 25.49 18.16 26.21L18.16 26.21L18.16 26.21Q18.69 26.93 18.90 27.25L18.90 27.25L18.90 27.25Q19.11 27.58 19.63 28.60L19.63 28.60L19.63 28.60Q20.16 29.62 20.34 29.92L20.34 29.92L20.34 29.92Q20.88 29.69 21.02 29.44L21.02 29.44L21.02 29.44Q19.27 26.46 19.27 23.94L19.27 23.94L19.27 23.94Q19.27 22.85 19.77 21.29L19.77 21.29L19.77 21.29Q20.27 19.72 21.02 18.42L21.02 18.42L21.02 18.42Q20.88 18.18 20.34 17.96L20.34 17.96L20.34 17.96Q20.20 18.21 19.78 19.02L19.78 19.02L19.78 19.02Q19.37 19.83 19.24 20.07L19.24 20.07L19.24 20.07Q19.11 20.30 18.73 20.94L18.73 20.94L18.73 20.94Q18.35 21.57 18.14 21.78L18.14 21.78L18.14 21.78Q17.93 21.99 17.52 22.40L17.52 22.40L17.52 22.40Q17.10 22.82 16.73 22.97L16.73 22.97L16.73 22.97Q16.35 23.12 15.84 23.24L15.84 23.24L15.84 23.24Q15.33 23.36 14.77 23.36L14.77 23.36L14.77 23.36Q10.99 23.36 9.04 23.29L9.04 23.29L9.04 23.29Q9.04 19.04 9.25 12.20L9.25 12.20L14.84 12.20L14.84 12.20Q23.43 12.20 26.63 18.14L26.63 18.14L26.63 18.14Q27.11 17.96 27.25 17.67L27.25 17.67L27.25 17.67Q25.49 14.08 23.31 12.60L23.31 12.60L23.31 12.60Q21.13 11.13 16.80 11.13ZM19.23 18.54L19.23 18.54L19.99 17.07L19.99 17.07Q21.46 17.60 21.85 18.42L21.85 18.42L21.85 18.42Q21.06 19.79 20.52 21.38L20.52 21.38L20.52 21.38Q19.99 22.97 19.99 23.94L19.99 23.94L19.99 23.94Q19.99 26.28 21.85 29.44L21.85 29.44L21.85 29.44Q21.43 30.34 20.06 30.81L20.06 30.81L20.06 30.81Q19.41 29.74 19.11 29.16L19.11 29.16L19.11 29.16Q18.39 27.97 17.97 27.38L17.97 27.38L17.97 27.38Q17.56 26.79 16.73 26.19L16.73 26.19L16.73 26.19Q15.91 25.59 14.91 25.56L14.91 25.56L11.74 25.56L11.74 25.56Q11.74 29.44 11.88 35.03L11.88 35.03L15.52 35.03L15.52 35.03Q19.99 35.03 22.79 33.28L22.79 33.28L22.79 33.28Q25.59 31.54 27.04 28.90L27.04 28.90L27.04 28.90Q28.51 29.44 28.90 30.27L28.90 30.27L28.90 30.27Q26.60 34.08 26.17 37.55L26.17 37.55L11.58 37.55L11.58 37.55Q4.64 37.55 1.27 37.65L1.27 37.65L1.27 37.65Q0.90 36.51 1.23 35.42L1.23 35.42L1.23 35.42Q5.08 35.03 5.12 34.38L5.12 34.38L5.12 34.38Q5.33 28.86 5.33 23.33L5.33 23.33L5.33 23.33Q5.33 17.67 5.15 13.54L5.15 13.54L5.15 13.54Q5.12 12.88 1.23 12.50L1.23 12.50L1.23 12.50Q0.90 11.27 1.30 10.23L1.30 10.23L1.30 10.23Q6.70 10.41 8.46 10.41L8.46 10.41L25.45 10.41L25.45 10.41Q25.88 13.85 28.20 17.67L28.20 17.67L28.20 17.67Q27.79 18.51 26.31 19.04L26.31 19.04L26.31 19.04Q24.87 16.42 22.07 14.67L22.07 14.67L22.07 14.67Q19.27 12.92 14.80 12.92L14.80 12.92L11.92 12.92L11.92 12.92Q11.74 19.23 11.74 22.61L11.74 22.61L11.74 22.61Q12.85 22.64 14.94 22.64L14.94 22.64L14.94 22.64Q16.42 22.64 17.30 21.65L17.30 21.65L17.30 21.65Q18.18 20.65 19.23 18.54ZM43.95 32.57L43.95 32.57L43.95 32.57Q44.09 28.18 43.95 23.77L43.95 23.77L43.95 23.77Q43.95 23.15 41.29 22.71L41.29 22.71L41.29 22.71Q40.89 21.64 41.29 20.58L41.29 20.58L48.88 20.58L48.88 20.58Q49.38 20.78 49.60 21.01L49.60 21.01L49.60 21.01Q49.82 21.23 49.99 21.67L49.99 21.67L49.99 21.67Q49.99 21.99 49.90 22.68L49.90 22.68L49.90 22.68Q49.82 23.36 49.82 23.77L49.82 23.77L49.82 23.77Q49.64 29.55 49.82 33.84L49.82 33.84L49.82 33.84Q51.08 34.24 52.49 34.31L52.49 34.31L52.49 34.31Q52.88 35.35 52.49 36.54L52.49 36.54L52.49 36.54Q50.19 36.69 46.79 38.13L46.79 38.13L46.79 38.13Q44.88 37.99 43.95 36.97L43.95 36.97L43.95 36.51L43.95 36.51Q41.54 38.06 38.23 38.06L38.23 38.06L38.23 38.06Q35.84 38.06 34.84 36.76L34.84 36.76L34.84 36.76Q33.84 35.46 33.80 32.68L33.80 32.68L33.80 32.68Q33.84 28.27 33.80 23.77L33.80 23.77L33.80 23.77Q33.80 23.15 31.13 22.71L31.13 22.71L31.13 22.71Q30.74 21.64 31.13 20.58L31.13 20.58L38.76 20.58L38.76 20.58Q39.27 20.78 39.49 21.01L39.49 21.01L39.49 21.01Q39.71 21.23 39.88 21.67L39.88 21.67L39.88 21.67Q39.88 21.99 39.80 22.68L39.80 22.68L39.80 22.68Q39.71 23.36 39.71 23.77L39.71 23.77L39.71 23.77Q39.59 27.86 39.71 32.12L39.71 32.12L39.71 32.12Q39.78 34.12 40.43 34.45L40.43 34.45L40.43 34.45Q41.71 34.12 43.95 32.57ZM44.67 23.77L44.67 23.77L44.67 23.77Q44.77 28.34 44.67 32.94L44.67 32.94L44.67 32.94Q41.40 35.28 39.62 35.28L39.62 35.28L39.62 35.28Q37.21 35.28 37.21 32.12L37.21 32.12L37.21 32.12Q37.11 27.86 37.21 23.77L37.21 23.77L37.21 23.77Q37.21 23.29 37.31 22.62L37.31 22.62L37.31 22.62Q37.41 21.96 37.41 21.78L37.41 21.78L37.41 21.78Q37.21 21.38 36.90 21.23L36.90 21.23L36.90 21.23Q34.29 21.41 31.71 21.23L31.71 21.23L31.71 21.23Q31.57 21.64 31.71 22.06L31.71 22.06L31.71 22.06Q34.49 22.50 34.52 23.77L34.52 23.77L34.52 23.77Q34.56 28.23 34.52 32.68L34.52 32.68L34.52 32.68Q34.49 35.07 35.35 36.20L35.35 36.20L35.35 36.20Q36.21 37.34 38.23 37.34L38.23 37.34L38.23 37.34Q40.89 37.34 44.67 34.05L44.67 34.05L44.67 36.62L44.67 36.62Q44.81 36.90 45.28 37.07L45.28 37.07L45.28 37.07Q47.79 36.14 51.80 35.82L51.80 35.82L51.80 35.82Q51.94 35.38 51.80 35.00L51.80 35.00L51.80 35.00Q48.78 34.88 47.34 34.28L47.34 34.28L47.34 34.28Q47.20 28.00 47.34 23.77L47.34 23.77L47.34 23.77Q47.34 23.29 47.43 22.62L47.43 22.62L47.43 22.62Q47.51 21.96 47.51 21.78L47.51 21.78L47.51 21.78Q47.34 21.38 47.00 21.23L47.00 21.23L47.00 21.23Q44.46 21.38 41.85 21.23L41.85 21.23L41.85 21.23Q41.71 21.64 41.85 22.06L41.85 22.06L41.85 22.06Q44.63 22.50 44.67 23.77ZM59.47 26.63L59.47 26.63L59.47 26.63Q59.47 24.19 60.39 23.09L60.39 23.09L60.39 23.09Q61.31 21.99 62.72 21.99L62.72 21.99L62.72 21.99Q63.76 21.99 64.64 22.98L64.64 22.98L64.64 22.98Q65.53 23.98 65.53 26.31L65.53 26.31L65.53 26.31Q65.53 31.32 62.79 31.32L62.79 31.32L62.79 31.32Q59.47 31.32 59.47 26.63ZM59.40 41.50L59.40 41.50L59.40 41.50Q59.40 39.57 61.63 38.37L61.63 38.37L61.63 38.37Q63.04 38.23 65.95 38.23L65.95 38.23L65.95 38.23Q68.04 38.23 68.75 39.01L68.75 39.01L68.75 39.01Q69.45 39.78 69.45 41.26L69.45 41.26L69.45 41.26Q69.45 42.52 68.10 43.88L68.10 43.88L68.10 43.88Q66.74 45.25 64.05 45.25L64.05 45.25L64.05 45.25Q61.63 45.25 60.51 44.15L60.51 44.15L60.51 44.15Q59.40 43.05 59.40 41.50ZM70.70 21.60L70.70 21.60L70.70 21.60Q71.17 21.64 71.17 22.10L71.17 22.10L71.17 22.10Q71.17 22.68 70.45 22.78L70.45 22.78L70.45 22.78Q69.84 22.85 68.94 22.50L68.94 22.50L68.94 22.50Q68.47 22.32 67.73 22.00L67.73 22.00L67.73 22.00Q66.99 21.67 66.69 21.54L66.69 21.54L66.69 21.54Q66.39 21.41 65.87 21.23L65.87 21.23L65.87 21.23Q65.34 21.06 64.96 21.01L64.96 21.01L64.96 21.01Q64.58 20.95 64.03 20.90L64.03 20.90L64.03 20.90Q63.47 20.85 62.79 20.85L62.79 20.85L62.79 20.85Q60.12 20.85 58.26 22.64L58.26 22.64L58.26 22.64Q56.41 24.43 56.41 26.60L56.41 26.60L56.41 26.60Q56.41 30.09 59.59 31.85L59.59 31.85L59.59 31.85Q56.74 33.98 56.74 35.67L56.74 35.67L56.74 35.67Q56.74 37.79 60.12 38.30L60.12 38.30L60.12 38.30Q56.67 40.17 56.67 42.77L56.67 42.77L56.67 42.77Q56.67 44.46 58.25 45.59L58.25 45.59L58.25 45.59Q59.84 46.72 62.89 46.72L62.89 46.72L62.89 46.72Q66.53 46.72 69.06 44.31L69.06 44.31L69.06 44.31Q71.58 41.91 71.58 39.41L71.58 39.41L71.58 39.41Q71.58 35.38 66.67 35.38L66.67 35.38L66.67 35.38Q66.13 35.38 65.23 35.42L65.23 35.42L65.23 35.42Q64.34 35.46 64.00 35.46L64.00 35.46L64.00 35.46Q61.31 35.46 60.21 35.09L60.21 35.09L60.21 35.09Q59.12 34.73 59.12 33.94L59.12 33.94L59.12 33.94Q59.12 32.94 60.66 32.29L60.66 32.29L60.66 32.29Q61.73 32.47 62.93 32.47L62.93 32.47L62.93 32.47Q65.30 32.47 66.95 30.81L66.95 30.81L66.95 30.81Q68.59 29.16 68.59 26.35L68.59 26.35L68.59 26.35Q68.59 24.12 67.75 22.97L67.75 22.97L67.83 22.89L67.83 22.89Q68.12 23.08 68.60 23.42L68.60 23.42L68.60 23.42Q69.08 23.77 69.34 23.91L69.34 23.91L69.34 23.91Q69.59 24.05 70.00 24.19L70.00 24.19L70.00 24.19Q70.42 24.33 70.82 24.33L70.82 24.33L70.82 24.33Q71.49 24.33 71.95 23.81L71.95 23.81L71.95 23.81Q72.40 23.29 72.40 22.57L72.40 22.57L72.40 22.57Q72.40 21.81 71.97 21.30L71.97 21.30L71.97 21.30Q71.54 20.78 70.70 20.78L70.70 20.78L70.70 20.78Q70.45 21.23 70.70 21.60ZM70.93 25.05L70.93 25.05L70.93 25.05Q71.07 25.63 71.07 26.35L71.07 26.35L71.07 26.35Q71.07 29.48 69.07 31.33L69.07 31.33L69.07 31.33Q67.08 33.19 64.20 33.19L64.20 33.19L62.00 33.19L62.00 33.19Q61.49 33.77 61.71 34.22L61.71 34.22L61.71 34.22Q61.93 34.66 62.54 34.66L62.54 34.66L68.43 34.66L68.43 34.66Q74.06 34.66 74.06 39.41L74.06 39.41L74.06 39.41Q74.06 40.68 73.30 42.06L73.30 42.06L73.30 42.06Q72.54 43.45 71.19 44.66L71.19 44.66L71.19 44.66Q69.84 45.86 67.64 46.65L67.64 46.65L67.64 46.65Q65.44 47.44 62.89 47.44L62.89 47.44L62.89 47.44Q59.47 47.44 57.71 46.12L57.71 46.12L57.71 46.12Q55.95 44.79 55.95 42.77L55.95 42.77L55.95 42.77Q55.95 40.54 58.29 38.62L58.29 38.62L58.29 38.62Q56.02 37.83 56.02 35.67L56.02 35.67L56.02 35.67Q56.02 33.80 58.32 31.89L58.32 31.89L58.32 31.89Q55.69 29.99 55.69 26.60L55.69 26.60L55.69 26.60Q55.69 24.19 57.76 22.16L57.76 22.16L57.76 22.16Q59.84 20.13 62.79 20.13L62.79 20.13L62.79 20.13Q64.99 20.13 66.03 20.36L66.03 20.36L66.03 20.36Q67.08 20.58 68.66 21.23L68.66 21.23L68.66 21.23Q69.45 20.06 70.70 20.06L70.70 20.06L70.70 20.06Q71.93 20.06 72.53 20.78L72.53 20.78L72.53 20.78Q73.13 21.50 73.13 22.57L73.13 22.57L73.13 22.57Q73.13 23.61 72.53 24.33L72.53 24.33L72.53 24.33Q71.93 25.05 70.93 25.05ZM61.89 41.50L61.89 41.50L61.89 41.50Q61.89 42.63 62.55 43.47L62.55 43.47L62.55 43.47Q63.21 44.31 64.69 44.49L64.69 44.49L64.69 44.49Q66.71 44.31 67.72 43.25L67.72 43.25L67.72 43.25Q68.73 42.19 68.73 41.26L68.73 41.26L68.73 41.26Q68.73 40.17 68.24 39.56L68.24 39.56L68.24 39.56Q67.75 38.95 66.36 38.95L66.36 38.95L66.36 38.95Q64.69 38.95 63.07 39.09L63.07 39.09L63.07 39.09Q61.89 40.10 61.89 41.50ZM61.96 26.63L61.96 26.63L61.96 26.63Q61.96 29.95 63.40 30.50L63.40 30.50L63.40 30.50Q64.81 29.95 64.81 26.31L64.81 26.31L64.81 26.31Q64.81 23.43 63.33 22.85L63.33 22.85L63.33 22.85Q61.96 23.43 61.96 26.63ZM84.20 21.99L84.20 21.99L84.20 21.99Q85.61 21.99 86.24 22.90L86.24 22.90L86.24 22.90Q86.87 23.80 86.87 25.15L86.87 25.15L86.87 25.15Q86.87 25.66 86.70 26.31L86.70 26.31L79.84 26.31L79.84 26.31Q80.38 24.12 81.61 23.05L81.61 23.05L81.61 23.05Q82.83 21.99 84.20 21.99ZM79.66 27.51L79.66 27.51L89.24 27.51L89.24 27.51Q89.53 26.63 89.53 25.70L89.53 25.70L89.53 25.70Q89.53 23.64 88.36 22.25L88.36 22.25L88.36 22.25Q87.19 20.85 84.64 20.85L84.64 20.85L84.64 20.85Q81.32 20.85 79.05 23.26L79.05 23.26L79.05 23.26Q76.78 25.66 76.78 29.37L76.78 29.37L76.78 29.37Q76.78 33.33 78.94 35.33L78.94 35.33L78.94 35.33Q81.11 37.34 84.02 37.34L84.02 37.34L84.02 37.34Q86.19 37.34 88.04 36.17L88.04 36.17L88.04 36.17Q89.89 35.00 90.76 32.64L90.76 32.64L90.76 32.64Q90.51 32.36 90.07 32.26L90.07 32.26L90.07 32.26Q90 32.36 89.66 32.83L89.66 32.83L89.66 32.83Q89.31 33.29 89.16 33.50L89.16 33.50L89.16 33.50Q89.00 33.70 88.58 34.08L88.58 34.08L88.58 34.08Q88.17 34.45 87.79 34.63L87.79 34.63L87.79 34.63Q87.42 34.80 86.84 34.97L86.84 34.97L86.84 34.97Q86.26 35.14 85.57 35.14L85.57 35.14L85.57 35.14Q82.86 35.14 81.26 33.53L81.26 33.53L81.26 33.53Q79.66 31.92 79.59 29.20L79.59 29.20L79.59 29.20Q79.59 28.58 79.66 27.51ZM89.79 31.43L89.79 31.43L89.79 31.43Q90.90 31.68 91.58 32.54L91.58 32.54L91.58 32.54Q90.58 35.28 88.49 36.67L88.49 36.67L88.49 36.67Q86.40 38.06 84.02 38.06L84.02 38.06L84.02 38.06Q80.79 38.06 78.42 35.88L78.42 35.88L78.42 35.88Q76.06 33.70 76.06 29.37L76.06 29.37L76.06 29.37Q76.06 25.45 78.48 22.79L78.48 22.79L78.48 22.79Q80.89 20.13 85.32 20.13L85.32 20.13L85.32 20.13Q92.02 20.13 92.02 25.70L92.02 25.70L92.02 25.70Q92.02 26.79 91.51 28.23L91.51 28.23L82.07 28.23L82.07 29.37L82.07 29.37Q82.16 31.50 83.23 32.83L83.23 32.83L83.23 32.83Q84.30 34.15 86.19 34.38L86.19 34.38L86.19 34.38Q87.29 34.28 88.01 33.63L88.01 33.63L88.01 33.63Q88.73 32.98 89.79 31.43ZM86.15 25.15L86.15 25.15L86.15 25.15Q86.15 23.22 84.85 22.82L84.85 22.82L84.85 22.82Q83.30 23.29 82.55 25.59L82.55 25.59L86.12 25.59L86.12 25.59Q86.12 25.52 86.13 25.38L86.13 25.38L86.13 25.38Q86.15 25.24 86.15 25.15ZM106.88 36.02L106.88 36.02L106.88 36.02Q106.66 36.42 106.88 36.88L106.88 36.88L106.88 36.88Q111.45 36.77 116.03 36.88L116.03 36.88L116.03 36.88Q116.28 36.46 116.03 36.02L116.03 36.02L116.03 36.02Q111.74 35.81 111.71 34.33L111.71 34.33L111.53 25.49L111.53 25.49Q111.45 23.08 110.75 21.96L110.75 21.96L110.75 21.96Q110.06 20.85 108.32 20.85L108.32 20.85L108.32 20.85Q105.40 20.85 101.37 24.87L101.37 24.87L101.37 21.38L101.37 21.38Q101.23 21.09 100.76 20.92L100.76 20.92L100.76 20.92Q98.31 22.06 95.68 22.36L95.68 22.36L95.68 22.36Q95.57 22.78 95.68 23.19L95.68 23.19L95.68 23.19Q97.70 23.29 98.67 23.91L98.67 23.91L98.67 23.91Q98.86 29.16 98.67 34.33L98.67 34.33L98.67 34.33Q98.63 35.63 95.64 36.02L95.64 36.02L95.64 36.02Q95.43 36.42 95.64 36.88L95.64 36.88L95.64 36.88Q100.21 36.70 104.84 36.88L104.84 36.88L104.84 36.88Q105.05 36.42 104.84 36.02L104.84 36.02L104.84 36.02Q101.55 35.67 101.51 34.33L101.51 34.33L101.51 34.33Q101.37 30.67 101.37 26.00L101.37 26.00L101.37 26.00Q104.91 22.89 106.91 22.89L106.91 22.89L106.91 22.89Q108.83 22.89 108.83 26.07L108.83 26.07L108.79 34.33L108.79 34.33Q108.79 35.19 108.26 35.53L108.26 35.53L108.26 35.53Q107.74 35.88 106.88 36.02ZM106.31 37.49L106.31 37.49L106.31 37.49Q105.87 36.46 106.31 35.37L106.31 35.37L106.31 35.37Q106.88 35.37 107.47 35.06L107.47 35.06L107.47 35.06Q108.07 34.75 108.07 34.33L108.07 34.33L108.11 26.07L108.11 26.07Q108.11 24.15 107.35 23.73L107.35 23.73L107.35 23.73Q106.05 24.05 103.85 25.63L103.85 25.63L103.85 25.63Q103.85 30.46 103.99 34.29L103.99 34.29L103.99 34.29Q104.08 35.23 105.40 35.37L105.40 35.37L105.40 35.37Q105.84 36.46 105.40 37.49L105.40 37.49L105.40 37.49Q100.25 37.32 95.04 37.49L95.04 37.49L95.04 37.49Q94.61 36.46 95.04 35.37L95.04 35.37L95.04 35.37Q97.91 34.98 97.95 34.29L97.95 34.29L97.95 34.29Q98.14 29.34 97.95 24.33L97.95 24.33L97.95 24.33Q96.77 23.98 95.04 23.87L95.04 23.87L95.04 23.87Q94.64 22.82 95.04 21.64L95.04 21.64L95.04 21.64Q97.70 21.50 101.02 20.06L101.02 20.06L101.02 20.06Q102.92 20.20 103.85 21.20L103.85 21.20L103.85 21.78L103.85 21.78Q106.35 20.13 109.58 20.13L109.58 20.13L109.58 20.13Q111.96 20.13 112.97 21.42L112.97 21.42L112.97 21.42Q113.98 22.71 114.01 25.49L114.01 25.49L114.01 25.49Q114.08 32.47 114.19 34.33L114.19 34.33L114.19 34.33Q114.22 35.05 116.67 35.37L116.67 35.37L116.67 35.37Q117.07 36.53 116.60 37.49L116.60 37.49L116.60 37.49Q111.45 37.39 106.31 37.49ZM127.34 21.99L127.34 21.99L127.34 21.99Q128.74 21.99 129.38 22.90L129.38 22.90L129.38 22.90Q130.01 23.80 130.01 25.15L130.01 25.15L130.01 25.15Q130.01 25.66 129.83 26.31L129.83 26.31L122.98 26.31L122.98 26.31Q123.52 24.12 124.74 23.05L124.74 23.05L124.74 23.05Q125.96 21.99 127.34 21.99ZM122.80 27.51L122.80 27.51L132.38 27.51L132.38 27.51Q132.66 26.63 132.66 25.70L132.66 25.70L132.66 25.70Q132.66 23.64 131.49 22.25L131.49 22.25L131.49 22.25Q130.32 20.85 127.78 20.85L127.78 20.85L127.78 20.85Q124.45 20.85 122.19 23.26L122.19 23.26L122.19 23.26Q119.92 25.66 119.92 29.37L119.92 29.37L119.92 29.37Q119.92 33.33 122.08 35.33L122.08 35.33L122.08 35.33Q124.24 37.34 127.16 37.34L127.16 37.34L127.16 37.34Q129.32 37.34 131.18 36.17L131.18 36.17L131.18 36.17Q133.03 35.00 133.89 32.64L133.89 32.64L133.89 32.64Q133.65 32.36 133.21 32.26L133.21 32.26L133.21 32.26Q133.14 32.36 132.79 32.83L132.79 32.83L132.79 32.83Q132.45 33.29 132.29 33.50L132.29 33.50L132.29 33.50Q132.13 33.70 131.72 34.08L131.72 34.08L131.72 34.08Q131.31 34.45 130.93 34.63L130.93 34.63L130.93 34.63Q130.55 34.80 129.97 34.97L129.97 34.97L129.97 34.97Q129.39 35.14 128.71 35.14L128.71 35.14L128.71 35.14Q126 35.14 124.40 33.53L124.40 33.53L124.40 33.53Q122.80 31.92 122.73 29.20L122.73 29.20L122.73 29.20Q122.73 28.58 122.80 27.51ZM132.93 31.43L132.93 31.43L132.93 31.43Q134.03 31.68 134.72 32.54L134.72 32.54L134.72 32.54Q133.72 35.28 131.63 36.67L131.63 36.67L131.63 36.67Q129.53 38.06 127.16 38.06L127.16 38.06L127.16 38.06Q123.93 38.06 121.56 35.88L121.56 35.88L121.56 35.88Q119.20 33.70 119.20 29.37L119.20 29.37L119.20 29.37Q119.20 25.45 121.61 22.79L121.61 22.79L121.61 22.79Q124.03 20.13 128.46 20.13L128.46 20.13L128.46 20.13Q135.16 20.13 135.16 25.70L135.16 25.70L135.16 25.70Q135.16 26.79 134.65 28.23L134.65 28.23L125.21 28.23L125.21 29.37L125.21 29.37Q125.30 31.50 126.37 32.83L126.37 32.83L126.37 32.83Q127.44 34.15 129.32 34.38L129.32 34.38L129.32 34.38Q130.43 34.28 131.15 33.63L131.15 33.63L131.15 33.63Q131.87 32.98 132.93 31.43ZM129.29 25.15L129.29 25.15L129.29 25.15Q129.29 23.22 127.99 22.82L127.99 22.82L127.99 22.82Q126.44 23.29 125.68 25.59L125.68 25.59L129.25 25.59L129.25 25.59Q129.25 25.52 129.27 25.38L129.27 25.38L129.27 25.38Q129.29 25.24 129.29 25.15ZM162.21 37.55L162.21 37.55L162.21 37.55Q164.88 37.55 167.69 36.33L167.69 36.33L167.69 36.33Q170.49 35.10 172.13 32.73L172.13 32.73L172.13 32.73Q172.13 32.50 171.92 32.34L171.92 32.34L171.92 32.34Q171.72 32.19 171.47 32.19L171.47 32.19L171.47 32.19Q168.84 35.38 163.72 35.38L163.72 35.38L163.72 35.38Q158.33 35.38 155.58 32.12L155.58 32.12L155.58 32.12Q152.82 28.86 152.82 24.01L152.82 24.01L152.82 24.01Q152.82 21.81 153.31 19.77L153.31 19.77L153.31 19.77Q153.79 17.72 154.82 15.85L154.82 15.85L154.82 15.85Q155.85 13.97 157.75 12.81L157.75 12.81L157.75 12.81Q159.66 11.65 162.21 11.65L162.21 11.65L162.21 11.65Q163.95 11.65 165.43 12.20L165.43 12.20L165.43 12.20Q166.90 12.74 167.85 13.48L167.85 13.48L167.85 13.48Q168.80 14.22 169.71 15.46L169.71 15.46L169.71 15.46Q170.61 16.70 171.08 17.60L171.08 17.60L171.08 17.60Q171.54 18.51 172.20 19.90L172.20 19.90L172.20 19.90Q172.72 19.83 172.85 19.51L172.85 19.51L172.85 19.51Q171.54 14.29 168.92 12.35L168.92 12.35L168.92 12.35Q166.29 10.41 162.21 10.41L162.21 10.41L162.21 10.41Q160.56 10.41 158.84 10.80L158.84 10.80L158.84 10.80Q157.11 11.20 155.29 12.21L155.29 12.21L155.29 12.21Q153.47 13.22 152.09 14.70L152.09 14.70L152.09 14.70Q150.70 16.19 149.80 18.61L149.80 18.61L149.80 18.61Q148.90 21.02 148.90 24.01L148.90 24.01L148.90 24.01Q148.90 27 149.80 29.41L149.80 29.41L149.80 29.41Q150.70 31.82 152.09 33.29L152.09 33.29L152.09 33.29Q153.47 34.77 155.29 35.76L155.29 35.76L155.29 35.76Q157.11 36.76 158.84 37.15L158.84 37.15L158.84 37.15Q160.56 37.55 162.21 37.55ZM171.76 20.69L171.76 20.69L171.76 20.69Q171 19.00 170.37 17.90L170.37 17.90L170.37 17.90Q169.73 16.80 168.68 15.44L168.68 15.44L168.68 15.44Q167.63 14.08 166.17 13.32L166.17 13.32L166.17 13.32Q164.71 12.57 162.90 12.41L162.90 12.41L162.90 12.41Q160.89 12.57 159.40 13.68L159.40 13.68L159.40 13.68Q157.90 14.80 157.09 16.54L157.09 16.54L157.09 16.54Q156.27 18.28 155.89 20.15L155.89 20.15L155.89 20.15Q155.51 22.03 155.51 24.01L155.51 24.01L155.51 24.01Q155.51 28.44 157.75 31.45L157.75 31.45L157.75 31.45Q159.98 34.45 164.41 34.66L164.41 34.66L164.41 34.66Q168.70 34.45 171.14 31.46L171.14 31.46L171.14 31.46Q171.83 31.46 172.34 31.91L172.34 31.91L172.34 31.91Q172.85 32.36 172.85 32.98L172.85 32.98L172.85 32.98Q171.07 35.56 168.05 36.91L168.05 36.91L168.05 36.91Q165.02 38.27 162.21 38.27L162.21 38.27L162.21 38.27Q160.45 38.27 158.65 37.85L158.65 37.85L158.65 37.85Q156.85 37.44 154.92 36.40L154.92 36.40L154.92 36.40Q153 35.35 151.52 33.79L151.52 33.79L151.52 33.79Q150.05 32.22 149.12 29.68L149.12 29.68L149.12 29.68Q148.18 27.14 148.18 24.01L148.18 24.01L148.18 24.01Q148.18 20.74 149.15 18.17L149.15 18.17L149.15 18.17Q150.12 15.59 151.63 14.04L151.63 14.04L151.63 14.04Q153.14 12.50 155.16 11.47L155.16 11.47L155.16 11.47Q157.18 10.44 159.09 10.06L159.09 10.06L159.09 10.06Q161.00 9.69 162.93 9.69L162.93 9.69L162.93 9.69Q165.57 9.69 168.66 10.39L168.66 10.39L168.66 10.39Q171.76 11.09 173.09 11.27L173.09 11.27L173.09 11.27Q172.51 13.54 172.63 15.25L172.63 15.25L172.63 15.25Q172.76 16.96 173.64 19.44L173.64 19.44L173.64 19.44Q173.13 20.48 171.76 20.69ZM188.35 36.02L188.35 36.02L188.35 36.02Q188.14 36.42 188.35 36.88L188.35 36.88L188.35 36.88Q192.92 36.77 197.49 36.88L197.49 36.88L197.49 36.88Q197.75 36.46 197.49 36.02L197.49 36.02L197.49 36.02Q193.22 35.81 193.18 34.33L193.18 34.33L192.99 25.49L192.99 25.49Q192.92 23.08 192.22 21.96L192.22 21.96L192.22 21.96Q191.51 20.85 189.79 20.85L189.79 20.85L189.79 20.85Q186.87 20.85 182.85 24.87L182.85 24.87L182.85 10.51L182.85 10.51Q182.71 10.23 182.23 10.04L182.23 10.04L182.23 10.04Q179.79 11.20 177.15 11.48L177.15 11.48L177.15 11.48Q177.05 11.92 177.15 12.30L177.15 12.30L177.15 12.30Q179.17 12.41 180.14 13.03L180.14 13.03L180.14 34.33L180.14 34.33Q180.11 35.63 177.12 36.02L177.12 36.02L177.12 36.02Q176.91 36.42 177.12 36.88L177.12 36.88L177.12 36.88Q181.72 36.70 186.29 36.88L186.29 36.88L186.29 36.88Q186.52 36.42 186.29 36.02L186.29 36.02L186.29 36.02Q183.02 35.67 182.99 34.33L182.99 34.33L182.99 34.33Q182.85 30.59 182.85 26.00L182.85 26.00L182.85 26.00Q186.36 22.89 188.38 22.89L188.38 22.89L188.38 22.89Q190.30 22.89 190.30 26.07L190.30 26.07L190.27 34.33L190.27 34.33Q190.27 35.19 189.74 35.53L189.74 35.53L189.74 35.53Q189.21 35.88 188.35 36.02ZM187.77 37.49L187.77 37.49L187.77 37.49Q187.35 36.46 187.77 35.37L187.77 35.37L187.77 35.37Q188.35 35.37 188.95 35.06L188.95 35.06L188.95 35.06Q189.54 34.75 189.54 34.33L189.54 34.33L189.58 26.07L189.58 26.07Q189.58 24.15 188.82 23.73L188.82 23.73L188.82 23.73Q187.52 24.05 185.33 25.63L185.33 25.63L185.33 25.63Q185.33 30.38 185.47 34.29L185.47 34.29L185.47 34.29Q185.54 35.23 186.87 35.37L186.87 35.37L186.87 35.37Q187.31 36.46 186.87 37.49L186.87 37.49L186.87 37.49Q181.72 37.32 176.50 37.49L176.50 37.49L176.50 37.49Q176.08 36.46 176.50 35.37L176.50 35.37L176.50 35.37Q179.38 34.98 179.42 34.29L179.42 34.29L179.42 13.46L179.42 13.46Q178.24 13.10 176.50 12.99L176.50 12.99L176.50 12.99Q176.12 11.95 176.50 10.76L176.50 10.76L176.50 10.76Q179.17 10.62 182.48 9.18L182.48 9.18L182.48 9.18Q184.39 9.32 185.33 10.34L185.33 10.34L185.33 21.78L185.33 21.78Q187.80 20.13 191.06 20.13L191.06 20.13L191.06 20.13Q193.43 20.13 194.44 21.42L194.44 21.42L194.44 21.42Q195.45 22.71 195.49 25.49L195.49 25.49L195.49 25.49Q195.56 32.38 195.66 34.33L195.66 34.33L195.66 34.33Q195.70 35.05 198.14 35.37L198.14 35.37L198.14 35.37Q198.54 36.53 198.07 37.49L198.07 37.49L198.07 37.49Q192.92 37.39 187.77 37.49ZM208.69 21.99L208.69 21.99L208.69 21.99Q210.09 21.99 210.73 22.90L210.73 22.90L210.73 22.90Q211.36 23.80 211.36 25.15L211.36 25.15L211.36 25.15Q211.36 25.66 211.18 26.31L211.18 26.31L204.33 26.31L204.33 26.31Q204.87 24.12 206.09 23.05L206.09 23.05L206.09 23.05Q207.32 21.99 208.69 21.99ZM204.15 27.51L204.15 27.51L213.73 27.51L213.73 27.51Q214.01 26.63 214.01 25.70L214.01 25.70L214.01 25.70Q214.01 23.64 212.84 22.25L212.84 22.25L212.84 22.25Q211.68 20.85 209.13 20.85L209.13 20.85L209.13 20.85Q205.80 20.85 203.54 23.26L203.54 23.26L203.54 23.26Q201.27 25.66 201.27 29.37L201.27 29.37L201.27 29.37Q201.27 33.33 203.43 35.33L203.43 35.33L203.43 35.33Q205.59 37.34 208.51 37.34L208.51 37.34L208.51 37.34Q210.67 37.34 212.53 36.17L212.53 36.17L212.53 36.17Q214.38 35.00 215.24 32.64L215.24 32.64L215.24 32.64Q215.00 32.36 214.56 32.26L214.56 32.26L214.56 32.26Q214.49 32.36 214.15 32.83L214.15 32.83L214.15 32.83Q213.80 33.29 213.64 33.50L213.64 33.50L213.64 33.50Q213.49 33.70 213.07 34.08L213.07 34.08L213.07 34.08Q212.66 34.45 212.28 34.63L212.28 34.63L212.28 34.63Q211.90 34.80 211.32 34.97L211.32 34.97L211.32 34.97Q210.74 35.14 210.06 35.14L210.06 35.14L210.06 35.14Q207.35 35.14 205.75 33.53L205.75 33.53L205.75 33.53Q204.15 31.92 204.08 29.20L204.08 29.20L204.08 29.20Q204.08 28.58 204.15 27.51ZM214.28 31.43L214.28 31.43L214.28 31.43Q215.38 31.68 216.07 32.54L216.07 32.54L216.07 32.54Q215.07 35.28 212.98 36.67L212.98 36.67L212.98 36.67Q210.88 38.06 208.51 38.06L208.51 38.06L208.51 38.06Q205.28 38.06 202.91 35.88L202.91 35.88L202.91 35.88Q200.55 33.70 200.55 29.37L200.55 29.37L200.55 29.37Q200.55 25.45 202.97 22.79L202.97 22.79L202.97 22.79Q205.38 20.13 209.81 20.13L209.81 20.13L209.81 20.13Q216.51 20.13 216.51 25.70L216.51 25.70L216.51 25.70Q216.51 26.79 216 28.23L216 28.23L206.56 28.23L206.56 29.37L206.56 29.37Q206.65 31.50 207.72 32.83L207.72 32.83L207.72 32.83Q208.79 34.15 210.67 34.38L210.67 34.38L210.67 34.38Q211.78 34.28 212.50 33.63L212.50 33.63L212.50 33.63Q213.22 32.98 214.28 31.43ZM210.64 25.15L210.64 25.15L210.64 25.15Q210.64 23.22 209.34 22.82L209.34 22.82L209.34 22.82Q207.79 23.29 207.04 25.59L207.04 25.59L210.60 25.59L210.60 25.59Q210.60 25.52 210.62 25.38L210.62 25.38L210.62 25.38Q210.64 25.24 210.64 25.15Z" transform="rotate(0 108.79296875 28.310546875)"></path></svg>